<svg width="23" height="22" viewBox="0 0 23 22" fill="none" xmlns="http://www.w3.org/2000/svg">
<g clip-path="url(#clip0_590_1095)">
<path fill-rule="evenodd" clip-rule="evenodd" d="M22.5932 10.7966C22.5932 16.7596 17.7596 21.5932 11.7966 21.5932C5.83364 21.5932 1 16.7596 1 10.7966C1 4.83364 5.83364 0 11.7966 0C17.7596 0 22.5932 4.83364 22.5932 10.7966ZM17.2709 7.8939C17.5953 7.56956 17.5953 7.04372 17.2709 6.71938C16.9466 6.39505 16.4208 6.39505 16.0964 6.71938L9.70364 13.1122L7.49888 10.9074C7.17455 10.5831 6.6487 10.5831 6.32436 10.9074C6.00003 11.2317 6.00003 11.7576 6.32436 12.0819L9.11638 14.8739C9.27213 15.0297 9.48337 15.1172 9.70364 15.1172C9.9239 15.1172 10.1351 15.0297 10.2909 14.8739L17.2709 7.8939Z" fill="#D8D8D8"/>
</g>
<defs>
<clipPath id="clip0_590_1095">
<rect width="21.5932" height="21.5932" fill="white" transform="translate(0.73877 0.0273438)"/>
</clipPath>
</defs>
</svg>
