<?xml version="1.0" encoding="UTF-8"?>
<svg id="Layer_1" data-name="Layer 1" xmlns="http://www.w3.org/2000/svg" viewBox="0 0 240 43">
  <defs>
    <style>
      .cls-1 {
        fill: #fff;
        stroke-width: 0px;
      }
    </style>
  </defs>
  <g id="Layer_142" data-name="Layer 142">
    <g>
      <g>
        <path class="cls-1" d="m102.22,16.82c-5.1,0-8.79,3.83-8.79,8.84s3.69,8.86,8.79,8.86,8.81-3.85,8.81-8.86-3.71-8.84-8.81-8.84Zm0,12.72c-2.09,0-3.61-1.56-3.61-3.88s1.52-3.86,3.61-3.86,3.61,1.54,3.61,3.86-1.52,3.88-3.61,3.88Z"/>
        <path class="cls-1" d="m133.7,16.82c-5.25,0-8.81,3.64-8.81,8.84s3.61,8.86,9.15,8.86c2.8,0,4.91-.96,6.04-2.07.63-.65.51-1.09-.26-2.09-.77-.96-1.08-1.03-1.73-.72-.94.41-2.12.72-3.42.72-2.46,0-4.38-1.06-4.68-3.11h10.29c1.49,0,1.71-.6,1.71-1.85,0-5.01-3.09-8.58-8.29-8.58Zm-3.52,7.01c.43-1.78,1.74-2.55,3.57-2.53,1.76.02,3.11.74,3.49,2.53h-7.06Z"/>
        <path class="cls-1" d="m161.4,29.88l-3.04-2.05c-.27-.19-.48-.09-.68.14-.75.91-1.76,1.57-3.27,1.57-2.26,0-3.93-1.54-3.93-3.88s1.68-3.86,3.93-3.86c1.5,0,2.51.67,3.27,1.57.21.22.41.32.68.14l3.01-2.03c.27-.19.39-.43.19-.7-1.35-2.26-3.95-3.95-7.33-3.95-5.06,0-8.94,3.69-8.94,8.84s3.88,8.86,8.94,8.86c3.39,0,5.98-1.69,7.33-3.95.21-.27.09-.51-.15-.68Z"/>
        <path class="cls-1" d="m179.15,28.69c-.65.53-1.56,1.09-2.79,1.09s-2.68-.62-2.68-3.13v-5.16h6.28c.31,0,.51-.21.51-.51v-3.3c0-.31-.21-.51-.51-.51h-14.55c-.29,0-.51.21-.51.51v3.3c0,.31.22.51.51.51h2.94v5.92c0,5.83,4,7.11,6.89,7.11,3.61,0,5.71-1.95,6.29-2.79.46-.65.6-1.23-.63-2.46-.99-1.01-1.21-1.03-1.74-.58Z"/>
        <path class="cls-1" d="m193.06,16.82c-5.1,0-8.79,3.83-8.79,8.84s3.69,8.86,8.79,8.86,8.81-3.85,8.81-8.86-3.71-8.84-8.81-8.84Zm0,12.72c-2.09,0-3.61-1.56-3.61-3.88s1.52-3.86,3.61-3.86,3.61,1.54,3.61,3.86-1.52,3.88-3.61,3.88Z"/>
        <path class="cls-1" d="m238.02,17.16h-4.31c-.31,0-.51.21-.51.51v7.03c0,2.14-1.01,3.39-3.01,3.39s-3.04-1.25-3.04-3.39v-7.03c0-.31-.21-.51-.51-.51h-4.31c-.31,0-.51.21-.51.51v8.07c0,4.5,2.29,7.28,5.81,7.28,2.74,0,4.17-1.64,4.92-3.33h.65v2.8c0,2.65-3.03,3.37-4.96,3.37-1.32,0-3.53-.39-4.54-1.04-.29-.17-.63-.21-.85.17l-1.5,2.58c-.6,1.03,3.41,3.09,7.45,3.09,4.58,0,9.75-1.73,9.75-7.56v-15.44c0-.31-.21-.51-.51-.51Z"/>
        <path class="cls-1" d="m66.55,11.18h-9.6c-.31,0-.53.21-.53.51v21.89c0,.31.22.51.53.51h4.5c.31,0,.51-.21.51-.51v-6.58h4.59c6.17,0,8.67-2.89,8.67-7.9s-2.5-7.92-8.67-7.92Zm-.19,10.96h-4.4v-6.1h4.4c2.33,0,3.59.67,3.59,3.06s-1.27,3.04-3.59,3.04Z"/>
        <path class="cls-1" d="m92.27,17.17c-.62-.23-1.32-.35-2.08-.35-2.87,0-4.67,1.74-5.33,3.88h-.75l-.14-3.03c-.03-.31-.21-.51-.51-.51h-4.17c-.28,0-.51.23-.51.51v15.9c0,.28.23.51.51.51h4.31c.28,0,.51-.23.51-.51v-7.11c0-3.56,1.5-4.7,3.56-4.7.71,0,1.49.13,2.1.63.33.27.82.14.99-.24l1.86-4.17c.14-.32,0-.69-.33-.81Z"/>
        <path class="cls-1" d="m219.01,17.17c-.62-.23-1.32-.35-2.08-.35-2.87,0-4.67,1.74-5.33,3.88h-.75l-.14-3.03c-.03-.31-.21-.51-.51-.51h-4.17c-.28,0-.51.23-.51.51v15.9c0,.28.23.51.51.51h4.31c.28,0,.51-.23.51-.51v-7.11c0-3.56,1.5-4.7,3.56-4.7.71,0,1.49.13,2.1.63.33.27.82.14.99-.24l1.86-4.17c.14-.32,0-.69-.33-.81Z"/>
        <path class="cls-1" d="m120.19,17.16h-4.31c-.28,0-.51.23-.51.51v14.82c0,2.65-1.61,3.37-3.23,3.37h-.18c-.29,0-.53.24-.53.53v3.54c0,.47.46.68.73.7.26.02.27.03.54.03,3.57,0,8.02-1.73,8.02-7.56v-15.44c0-.28-.23-.51-.51-.51Z"/>
      </g>
      <path class="cls-1" d="m38.93,11.06c-.64-.62-1.35-1.12-2.16-1.55-.09-2.66-.98-4.7-2.65-6.07-2.37-1.94-5.76-2.1-9.63-2.1h-8.23c-2.9,0-5.27,2.36-5.27,5.27v3.54C5.12,13.42,1.46,19.61,1.46,26.35v12.57c0,1.51,1.23,2.73,2.73,2.73h17.49c1.51,0,2.73-1.23,2.73-2.73v-4.91c6.44,0,10.62-.23,14.1-3.27,2.54-2.11,3.77-5.38,3.77-10.02,0-4.27-1.13-7.53-3.37-9.66Zm-27.93,2.87v17.34c0,1.51,1.23,2.73,2.73,2.73h7.48v4.44H4.67v-12.1c0-4.95,2.36-9.55,6.33-12.42Zm14.92-6.12h-5.92c-1.99,0-3.94.31-5.8.92v-2.12c0-1.14.92-2.06,2.06-2.06h8.23c3.24,0,6.05.1,7.6,1.37.7.57,1.14,1.37,1.35,2.43-2.37-.5-5.01-.54-7.52-.54Zm-4.7,10.12v12.88h-7.01V12.15c1.84-.75,3.79-1.14,5.8-1.14h5.92c3.07,0,5.54.11,7.5.63-.23,1.09-.72,1.9-1.5,2.45-1.74,1.29-3.25,1.48-7.91,1.48h-.44c-1.3,0-2.36,1.06-2.36,2.36Zm17.88,2.8c0,3.62-.86,6.1-2.64,7.57h0c-2.43,2.12-5.27,2.5-12.03,2.51v-12.02c4.58-.01,6.89-.24,9.38-2.09,1.23-.87,2.09-2.09,2.56-3.62.12.1.24.2.35.31,1.6,1.53,2.38,3.93,2.38,7.34Z"/>
    </g>
  </g>
</svg>