<?xml version="1.0" encoding="UTF-8"?>
<svg id="Layer_19" data-name="Layer 19" xmlns="http://www.w3.org/2000/svg" xmlns:xlink="http://www.w3.org/1999/xlink" viewBox="0 0 179.37 163.79">
  <defs>
    <style>
      .cls-1 {
        fill: url(#New_Gradient_Swatch_copy_11);
      }

      .cls-1, .cls-2, .cls-3 {
        stroke-width: 0px;
      }

      .cls-2 {
        fill: #f37655;
      }

      .cls-3 {
        fill: #f4dca8;
      }
    </style>
    <linearGradient id="New_Gradient_Swatch_copy_11" data-name="New Gradient Swatch copy 11" x1="134.51" y1="53.62" x2="17.15" y2="127.66" gradientUnits="userSpaceOnUse">
      <stop offset=".03" stop-color="#f4dca8"/>
      <stop offset=".18" stop-color="#f3c192"/>
      <stop offset=".41" stop-color="#f3a077"/>
      <stop offset=".63" stop-color="#f38964"/>
      <stop offset=".83" stop-color="#f37a58"/>
      <stop offset="1" stop-color="#f37655"/>
    </linearGradient>
  </defs>
  <g id="Layer_20" data-name="Layer 20">
    <g>
      <path class="cls-2" d="m126.92,99.24l-35.53,37.04h81.99c3.31,0,6-2.69,6-6V6c0-3.31-2.69-6-6-6h-54.3c-3,0-5.86,1.22-7.94,3.38l-23.15,24.13h35.99c3.31,0,6,2.69,6,6v58.11c0,2.84-1.1,5.57-3.06,7.61Z"/>
      <path class="cls-3" d="m91.38,136.28h-35.99c-3.31,0-6-2.69-6-6v-60.12c0-1.55.6-3.04,1.67-4.15l36.92-38.49H6c-3.31,0-6,2.69-6,6v124.28c0,3.31,2.69,6,6,6h54.3c3,0,5.86-1.22,7.94-3.38l23.15-24.13Z"/>
      <path class="cls-1" d="m55.39,136.28h35.99l35.53-37.04c1.96-2.05,3.06-4.78,3.06-7.61v-58.11c0-3.31-2.69-6-6-6h-35.99l-36.92,38.49c-1.07,1.12-1.67,2.61-1.67,4.15v60.12c0,3.31,2.69,6,6,6Z"/>
    </g>
  </g>
</svg>