<?xml version="1.0" encoding="UTF-8"?>
<svg id="Layer_19" data-name="Layer 19" xmlns="http://www.w3.org/2000/svg" xmlns:xlink="http://www.w3.org/1999/xlink" viewBox="0 0 207.55 112.69">
  <defs>
    <style>
      .cls-1 {
        fill: url(#New_Gradient_Swatch_copy_18);
      }

      .cls-1, .cls-2, .cls-3 {
        stroke-width: 0px;
      }

      .cls-2 {
        fill: #2bdcb7;
      }

      .cls-3 {
        fill: #b9efec;
      }
    </style>
    <linearGradient id="New_Gradient_Swatch_copy_18" data-name="New Gradient Swatch copy 18" x1="135.19" y1="52.66" x2="52.53" y2="72.64" gradientUnits="userSpaceOnUse">
      <stop offset=".03" stop-color="#b9efec"/>
      <stop offset=".13" stop-color="#a0ebe2"/>
      <stop offset=".32" stop-color="#76e6d3"/>
      <stop offset=".51" stop-color="#55e1c6"/>
      <stop offset=".69" stop-color="#3edebe"/>
      <stop offset=".86" stop-color="#2fdcb8"/>
      <stop offset="1" stop-color="#2bdcb7"/>
    </linearGradient>
  </defs>
  <g id="Layer_20" data-name="Layer 20">
    <g>
      <path class="cls-3" d="m39.24,0c-3.31,0-6,2.69-6,6v4.86c0,26.92-27.12,38.69-31.64,59.44-3.24,14.85-.81,30.17.83,37.67.6,2.76,3.04,4.73,5.86,4.73h63.19L103.77,0H39.24Z"/>
      <path class="cls-2" d="m174.31,10.86v-4.86c0-3.31-2.69-6-6-6h-64.54l32.3,112.69h63.19c2.82,0,5.26-1.97,5.86-4.73,1.64-7.5,4.07-22.82.83-37.67-4.53-20.75-31.64-32.52-31.64-59.44Z"/>
      <polygon class="cls-1" points="103.77 0 71.48 112.69 136.07 112.69 103.78 0 103.77 0"/>
    </g>
  </g>
</svg>