<?xml version="1.0" encoding="UTF-8"?>
<svg id="Layer_19" data-name="Layer 19" xmlns="http://www.w3.org/2000/svg" xmlns:xlink="http://www.w3.org/1999/xlink" viewBox="0 0 182.61 158.19">
  <defs>
    <style>
      .cls-1 {
        fill: url(#linear-gradient);
      }

      .cls-1, .cls-2, .cls-3 {
        stroke-width: 0px;
      }

      .cls-2 {
        fill: #2bdcb7;
      }

      .cls-3 {
        fill: #148771;
      }
    </style>
    <linearGradient id="linear-gradient" x1="93.12" y1="41.33" x2="88.81" y2="131" gradientUnits="userSpaceOnUse">
      <stop offset=".03" stop-color="#148771"/>
      <stop offset=".09" stop-color="#169078"/>
      <stop offset=".34" stop-color="#1fb193"/>
      <stop offset=".59" stop-color="#25c8a7"/>
      <stop offset=".81" stop-color="#29d7b2"/>
      <stop offset="1" stop-color="#2bdcb7"/>
    </linearGradient>
  </defs>
  <g id="Layer_20" data-name="Layer 20">
    <g>
      <path class="cls-3" d="m176.61,158.19c3.31,0,6-2.69,6-6v-45.45c0-3.13-2.4-5.75-5.52-5.98-20.5-1.48-29.48-11.3-36.68-21.67-8.85,12.76-15,26.36-36.52,26.36h-12.58s-12.58,0-12.58,0c-21.52,0-27.67-13.61-36.52-26.36-7.2,10.37-16.19,20.19-36.68,21.67-3.12.23-5.52,2.85-5.52,5.98v45.45c0,3.31,2.69,6,6,6h170.61Z"/>
      <path class="cls-2" d="m78.73,52.73h12.58s12.58,0,12.58,0c21.52,0,27.67,13.61,36.52,26.37,7.19-10.37,16.17-19.33,36.64-20.69,3.14-.21,5.56-2.84,5.56-5.98V6c0-3.31-2.69-6-6-6H6C2.69,0,0,2.69,0,6v46.43c0,3.14,2.43,5.77,5.56,5.98,20.47,1.36,29.44,10.32,36.64,20.69,8.85-12.76,15-26.37,36.52-26.37Z"/>
      <path class="cls-1" d="m78.73,105.46h12.58s12.58,0,12.58,0c21.52,0,27.67-13.61,36.52-26.36-8.85-12.76-15-26.37-36.52-26.37h-12.58s-12.58,0-12.58,0c-21.52,0-27.67,13.61-36.52,26.37,8.85,12.76,15,26.36,36.52,26.36Z"/>
    </g>
  </g>
</svg>