<?xml version="1.0" encoding="UTF-8"?>
<svg id="Layer_19" data-name="Layer 19" xmlns="http://www.w3.org/2000/svg" xmlns:xlink="http://www.w3.org/1999/xlink" viewBox="0 0 171.45 198.2">
  <defs>
    <style>
      .cls-1 {
        fill: url(#New_Gradient_Swatch_copy_10);
      }

      .cls-1, .cls-2, .cls-3 {
        stroke-width: 0px;
      }

      .cls-2 {
        fill: #a72c4b;
      }

      .cls-3 {
        fill: #f37655;
      }
    </style>
    <linearGradient id="New_Gradient_Swatch_copy_10" data-name="New Gradient Swatch copy 10" x1="48.27" y1="118.14" x2="140.77" y2="71.12" gradientUnits="userSpaceOnUse">
      <stop offset=".03" stop-color="#a72c4b"/>
      <stop offset=".03" stop-color="#a72c4b"/>
      <stop offset=".3" stop-color="#c84c4f"/>
      <stop offset=".56" stop-color="#df6352"/>
      <stop offset=".8" stop-color="#ee7154"/>
      <stop offset="1" stop-color="#f37655"/>
    </linearGradient>
  </defs>
  <g id="Layer_20" data-name="Layer 20">
    <g>
      <path class="cls-3" d="m41.47,75.09v-33.99c0-3.31,2.69-6,6-6h13.38c-5.44-7.48-9.2-16.83-10.05-29.48-.21-3.15-2.79-5.62-5.95-5.62H6C2.69,0,0,2.69,0,6v151.1c0,3.31,2.69,6,6,6h104.59c-21.44-29.5-69.13-29.93-69.13-88Z"/>
      <path class="cls-2" d="m129.98,123.1v33.99c0,3.31-2.69,6-6,6h-13.38c5.44,7.48,9.2,16.83,10.05,29.48.21,3.15,2.79,5.62,5.95,5.62h38.85c3.31,0,6-2.69,6-6V41.1c0-3.31-2.69-6-6-6H60.85c21.44,29.5,69.13,29.93,69.13,88Z"/>
      <path class="cls-1" d="m129.98,123.1c0-58.08-47.68-58.51-69.13-88h-13.38c-3.31,0-6,2.69-6,6v33.99c0,58.08,47.68,58.51,69.13,88h13.38c3.31,0,6-2.69,6-6v-33.99Z"/>
    </g>
  </g>
</svg>