<svg width="54" height="48" viewBox="0 0 54 48" fill="none" xmlns="http://www.w3.org/2000/svg">
<g clip-path="url(#clip0_63_1842)">
<path d="M49.0572 4.02319C44.5401 0.294186 38.0444 0 30.0193 0H24.9582C23.7364 0 22.6406 0.779195 22.2307 1.94799L20.6067 6.57545H11.7302C5.26599 6.5675 0 11.8787 0 18.4065V38.8087C0 40.4148 1.30073 41.7267 2.89314 41.7267H7.54423V45.082C7.54423 46.6881 8.84496 48 10.4374 48H23.6654C24.438 48 25.1632 47.6979 25.715 47.1413C26.2669 46.5847 26.5585 45.8532 26.5585 45.074L26.5428 33.2112H27.5755C37.2166 33.2112 43.4286 32.9329 48.4896 29.1483C52.1474 26.5324 54 22.2309 54 16.371C54 10.8769 52.3366 6.71857 49.0572 4.02319ZM36.6727 10.8849C36.9013 10.9723 37.122 11.0598 37.3428 11.1632C37.9892 11.4573 38.5804 11.8231 39.1086 12.2524C40.299 13.2304 41.1031 14.5503 41.5445 16.2438C41.8047 17.2616 41.9387 18.4065 41.9387 19.7025C41.9387 23.3599 40.9218 25.8725 38.7933 27.3911C35.7582 29.6651 31.9822 30.0308 24.1305 30.0308H17.7057C17.3667 30.0308 17.0435 30.1024 16.7518 30.2216C15.8689 30.5953 15.254 31.4779 15.254 32.5036V38.5383H10.7212V30.4602C10.7212 27.6376 12.3451 25.0694 14.9623 23.7575C17.6032 22.4376 19.0931 20.0364 20.4175 16.6414C20.6067 16.1564 20.788 15.6475 20.9772 15.1227L22.8613 9.74789H26.0304C29.5936 9.74789 32.7232 9.81945 35.2537 10.4396C35.7583 10.5668 36.2391 10.71 36.6964 10.8849H36.6727ZM3.15328 38.5463V18.4065C3.15328 13.6359 7.00029 9.75584 11.7302 9.75584H19.4952L17.9816 14.0732C16.5469 18.16 15.3486 20.0126 13.5355 20.919C9.83825 22.7716 7.54423 26.429 7.54423 30.4681V38.5463H3.15328ZM10.6975 44.8196V41.7267H15.4905C17.0829 41.7267 18.3836 40.4148 18.3836 38.8087V33.2192H23.3895V44.8196H10.6975ZM46.6371 26.5801C45.2181 27.6455 43.6809 28.385 41.8914 28.9018C42.0727 28.7189 42.2383 28.5201 42.4038 28.3214C42.4669 28.2418 42.5378 28.1782 42.6009 28.0987C42.861 27.7727 43.0975 27.4308 43.3104 27.073C43.3655 26.9856 43.405 26.8902 43.4601 26.8027C43.6178 26.5244 43.7676 26.2382 43.9016 25.9361C43.9647 25.7929 44.0199 25.6498 44.075 25.5067C44.1854 25.2443 44.28 24.966 44.3746 24.6878C44.4298 24.5208 44.4771 24.3538 44.5244 24.1868C44.6032 23.9006 44.6742 23.6144 44.7293 23.3122C44.7688 23.1373 44.8003 22.9624 44.8318 22.7875C44.887 22.4615 44.9264 22.1196 44.9658 21.7777C44.9816 21.6187 45.0053 21.4597 45.021 21.2927C45.0604 20.7759 45.0841 20.2511 45.0841 19.7025C45.0841 15.2977 43.7439 11.9662 41.1031 9.78764C37.4847 6.80603 32.3527 6.5675 26.0146 6.5675H23.9571L25.1474 3.18039H30.0193C37.4058 3.18039 43.3577 3.42687 47.0707 6.48799C49.6169 8.58705 50.8546 11.8151 50.8546 16.371C50.8546 21.2132 49.4908 24.5446 46.645 26.5801H46.6371Z" fill="#B7D000"/>
</g>
<defs>
<clipPath id="clip0_63_1842">
<rect width="54" height="48" fill="white"/>
</clipPath>
</defs>
</svg>
