<svg width="55" height="45" viewBox="0 0 55 45" fill="none" xmlns="http://www.w3.org/2000/svg">
<g clip-path="url(#clip0_63_1840)">
<path d="M49.8412 4.15935C45.3047 0.469604 39.591 0 35.122 0H20.8753C17.1411 0 16.1738 3.1456 15.3865 5.67252C14.4342 8.73613 13.7594 10.4729 10.7975 10.4729H2.75187C1.23722 10.4729 0 11.7028 0 13.2085V42.2644C0 43.7701 1.23722 45 2.75187 45H31.3504C32.865 45 34.1022 43.7701 34.1022 42.2644V34.3035C38.6762 34.1917 44.6449 33.491 49.2413 30.0994C53.1179 27.3638 55 23.0553 55 16.9057C55 11.2258 53.2604 6.93971 49.8337 4.15935H49.8412ZM9.29789 42.0184H2.99932V13.4545H9.29789V42.0184ZM14.7641 42.0184H12.2972V13.4545H33.9148C37.4015 13.4545 40.4308 13.5663 42.1404 14.9528C43.2577 15.8622 43.805 17.3083 43.805 19.3656C43.805 22.2727 42.7628 23.346 41.9455 23.92C40.1459 25.2543 37.7614 25.4928 33.4274 25.5226C32.1452 25.5301 31.1029 26.5736 31.1029 27.8408V31.3368H23.1997C22.4199 31.3368 21.6926 31.7244 21.2577 32.3654L14.7641 42.0109V42.0184ZM31.1029 42.0184H18.3708L23.5521 34.3258H31.1029V42.0184ZM47.4792 27.6843C43.5501 30.5914 38.2338 31.2175 34.1022 31.3218V28.4968C38.6987 28.4446 41.3681 28.057 43.7076 26.3351C43.7975 26.268 43.88 26.1935 43.9625 26.1264C44.12 26.0071 44.2774 25.8879 44.4199 25.7537C44.5324 25.6493 44.6224 25.5375 44.7273 25.4257C44.8323 25.3139 44.9448 25.2095 45.0423 25.0903C45.1547 24.9487 45.2522 24.7996 45.3572 24.6505C45.4322 24.5461 45.5072 24.4492 45.5746 24.3374C45.6796 24.166 45.7621 23.9796 45.8596 23.8007C45.9121 23.7038 45.9646 23.6069 46.0095 23.51C46.0995 23.3088 46.1745 23.0926 46.2495 22.8764C46.2795 22.7795 46.3245 22.6975 46.3545 22.6006C46.422 22.377 46.4744 22.1385 46.5269 21.8925C46.5494 21.7956 46.5794 21.7061 46.5944 21.6018C46.6469 21.3409 46.6769 21.0651 46.7069 20.7818C46.7144 20.6924 46.7369 20.6179 46.7444 20.5284C46.7744 20.1557 46.7894 19.7756 46.7894 19.3805C46.7894 16.4063 45.8596 14.1478 44.0225 12.6569C41.5556 10.6444 37.9789 10.4804 33.8998 10.4804H16.6162C17.411 9.23555 17.8609 7.79692 18.2434 6.5521C19.0982 3.78665 19.5481 2.98161 20.8603 2.98161H35.107C39.0811 2.98161 44.1275 3.37668 47.9216 6.4701C50.6585 8.6914 51.9857 12.1054 51.9857 16.9057C51.9857 22.0118 50.516 25.5375 47.4642 27.6843H47.4792Z" fill="#B7D000"/>
</g>
<defs>
<clipPath id="clip0_63_1840">
<rect width="55" height="45" fill="white"/>
</clipPath>
</defs>
</svg>
