<?xml version="1.0" encoding="UTF-8"?>
<svg id="Layer_1" data-name="Layer 1" xmlns="http://www.w3.org/2000/svg" xmlns:xlink="http://www.w3.org/1999/xlink" viewBox="0 0 226.96 201.1">
  <defs>
    <style>
      .cls-1 {
        fill: url(#linear-gradient);
      }

      .cls-1, .cls-2, .cls-3 {
        stroke-width: 0px;
      }

      .cls-2 {
        fill: #a72c4b;
      }

      .cls-3 {
        fill: #f37655;
      }
    </style>
    <linearGradient id="linear-gradient" x1="59.62" y1="33.65" x2="119.9" y2="93.92" gradientUnits="userSpaceOnUse">
      <stop offset=".03" stop-color="#a72c4b"/>
      <stop offset="1" stop-color="#e06353"/>
    </linearGradient>
  </defs>
  <g id="Layer_112" data-name="Layer 112">
    <g>
      <path class="cls-2" d="m210.26,39.4c-7.1-5.81-15.86-9.22-26.29-11.21,2.35,6.16,3.49,13.32,3.49,21.48,0,17.65-5.13,30.58-16.42,38.59-15.19,11.29-33.25,12.73-67.74,12.73h-3.73c-2.21,0-4,1.79-4,4v37.26c0,3.31-2.69,6-6,6h-45.17v46.85c0,3.31,2.69,6,6,6h43.53c3.65,0,7.06-1.81,9.11-4.83l36.85-54.45c.97-1.44,2.6-2.3,4.33-2.33,31.11-.43,48.93-2.97,64.18-14.3,12.75-9.04,18.55-23.65,18.55-43.59,0-18.78-5.33-32.92-16.69-42.2Z"/>
      <path class="cls-3" d="m84.83,31.05c.2-3.14,2.84-5.56,5.98-5.56h50.36c16.52,0,30.78.4,42.81,2.7-2.44-6.39-6.17-11.69-11.29-15.87C159.15,1.23,138.82,0,111.53,0h-61.05C22.6,0,0,22.6,0,50.48v91.77c0,3.31,2.69,6,6,6h38.41v-51.62c0-29.61,37.59-20.22,40.41-65.58Z"/>
      <path class="cls-1" d="m95.58,104.99c0-2.21,1.79-4,4-4h3.73c34.48,0,52.55-1.44,67.74-12.73,11.29-8,16.42-20.94,16.42-38.59,0-8.16-1.14-15.33-3.49-21.48-12.03-2.3-26.29-2.7-42.81-2.7h-50.36c-3.14,0-5.79,2.42-5.98,5.56-2.82,45.36-40.41,35.97-40.41,65.58v51.62h45.17c3.31,0,6-2.69,6-6v-37.26Z"/>
    </g>
  </g>
</svg>