<svg width="55" height="48" viewBox="0 0 55 48" fill="none" xmlns="http://www.w3.org/2000/svg">
<g clip-path="url(#clip0_63_1838)">
<path d="M55 12.6102C55 8.38827 53.6815 5.18403 51.0927 3.08498C47.5552 0.230578 42.5384 0 36.3558 0H19.1668C17.5428 0 16.2162 1.31191 16.2162 2.91801V11.3699H2.95059C1.32656 11.3699 0 12.6818 0 14.2879V29.6889C0 33.3941 2.43605 34.8809 4.38971 36.0815C6.35945 37.2821 7.46894 38.0692 7.46894 40.2319V45.0899C7.46894 46.696 8.7955 48.008 10.4195 48.008H29.2567C30.8807 48.008 32.2073 46.696 32.2073 45.0899V36.9641C38.7677 36.9243 43.1655 36.5506 46.8477 33.8473C49.742 31.8198 51.2133 28.4963 51.2133 23.9881C51.2133 23.352 51.1731 22.7477 51.1168 22.1594L51.157 22.1275V22.0719C53.6976 20.0205 55 16.8481 55 12.6182V12.6102ZM28.9914 44.8196H10.6848V40.224C10.6848 36.1849 8.02368 34.5629 6.0861 33.3702C4.20479 32.2173 3.2159 31.5335 3.2159 29.6889V14.5503H16.2162V34.0381C16.2162 35.6442 17.5428 36.9561 19.1668 36.9561H28.9914V44.8196ZM31.4998 22.4058C30.8084 22.4058 30.1813 22.6841 29.731 23.1294C29.2808 23.5746 28.9994 24.1948 28.9994 24.8786V33.7678H19.4401V14.5423H32.5691C34.1931 14.5423 35.6403 14.5662 36.9427 14.6298C37.2964 14.6457 37.6341 14.6695 37.9637 14.6934C40.9947 14.916 43.1574 15.4408 44.7975 16.5539C44.9664 16.6652 45.1191 16.7845 45.2799 16.9117C45.5372 17.1184 45.7623 17.349 45.9874 17.5796C46.0276 17.6273 46.0678 17.6671 46.108 17.7148C46.309 17.9533 46.502 18.1998 46.6708 18.4622C46.703 18.5099 46.7351 18.5655 46.7673 18.6132C46.9361 18.8915 47.0889 19.1777 47.2175 19.4878C47.2175 19.4878 47.2175 19.5037 47.2256 19.5117C47.3622 19.8218 47.4667 20.1637 47.5713 20.5135C47.5793 20.5533 47.5954 20.5851 47.6034 20.6248C47.515 20.6725 47.4185 20.7202 47.322 20.7679C47.2497 20.8077 47.1773 20.8474 47.105 20.8792C47.0004 20.927 46.8879 20.9747 46.7753 21.0303C46.703 21.0621 46.6306 21.0939 46.5583 21.1257C46.4457 21.1734 46.3251 21.2132 46.2125 21.2529C46.1321 21.2847 46.0598 21.3086 45.9794 21.3404C45.8588 21.3802 45.7382 21.4199 45.6096 21.4597C45.5292 21.4835 45.4488 21.5074 45.3684 21.5312C45.2397 21.571 45.1111 21.6028 44.9825 21.6346C44.9021 21.6584 44.8136 21.6823 44.7332 21.6982C44.5965 21.73 44.4518 21.7618 44.3152 21.7857C44.2267 21.8016 44.1463 21.8254 44.0579 21.8413C43.9051 21.8731 43.7524 21.897 43.5916 21.9208C43.5031 21.9367 43.4227 21.9526 43.3423 21.9606C43.1815 21.9844 43.0127 22.0083 42.8439 22.0321C42.7554 22.0401 42.667 22.056 42.5786 22.0719C42.4017 22.0957 42.2168 22.1116 42.0319 22.1275C41.9434 22.1355 41.863 22.1434 41.7666 22.1594C41.5897 22.1753 41.3967 22.1912 41.2118 22.2071C41.1073 22.215 41.0108 22.223 40.9063 22.2309C40.7053 22.2468 40.4963 22.2548 40.2872 22.2707C40.1908 22.2707 40.0943 22.2866 39.9978 22.2866C39.7807 22.2945 39.5476 22.3104 39.3144 22.3184C39.2179 22.3184 39.1295 22.3263 39.033 22.3343C38.7999 22.3422 38.5506 22.3502 38.3014 22.3581C38.2049 22.3581 38.1085 22.3581 38.0039 22.3661C37.7869 22.3661 37.5618 22.374 37.3366 22.382C37.1919 22.382 37.0553 22.382 36.9105 22.382C36.6452 22.382 36.3719 22.382 36.0985 22.382C35.986 22.382 35.8734 22.382 35.7609 22.382C35.3589 22.382 34.9488 22.382 34.5308 22.382H31.5159L31.4998 22.4058ZM44.9583 31.2632C42.2168 33.2828 38.8401 33.7201 32.2073 33.7678V25.5862H34.5066C35.1498 25.5862 35.7609 25.5862 36.3638 25.5862C36.4925 25.5862 36.6291 25.5862 36.7578 25.5862C37.3527 25.5862 37.9316 25.5703 38.4863 25.5544C38.5828 25.5544 38.6712 25.5544 38.7677 25.5465C39.2903 25.5306 39.7888 25.5147 40.2792 25.4829C40.3435 25.4829 40.4159 25.4829 40.4802 25.4749C40.9947 25.4431 41.4932 25.4033 41.9836 25.3636C42.0881 25.3556 42.1846 25.3477 42.2891 25.3318C42.7796 25.2841 43.2539 25.2205 43.7122 25.1569C43.7524 25.1569 43.7926 25.141 43.8328 25.133C44.2589 25.0615 44.6769 24.9819 45.087 24.8945C45.1674 24.8786 45.2478 24.8627 45.3282 24.8388C45.7462 24.7434 46.1563 24.6321 46.5583 24.5049C46.6386 24.481 46.719 24.4492 46.7994 24.4254C47.1854 24.2982 47.5713 24.155 47.9411 24.004C47.9572 24.004 47.9732 23.996 47.9893 23.9881C47.9893 27.4547 47.0085 29.832 44.9503 31.2712L44.9583 31.2632ZM50.2405 18.4383C50.2405 18.4383 50.2083 18.3747 50.1922 18.3429C50.0395 17.9851 49.8787 17.6353 49.6938 17.3093C49.6777 17.2775 49.6536 17.2377 49.6294 17.2059C49.4606 16.9117 49.2757 16.6334 49.0827 16.3631C49.0184 16.2677 48.9461 16.1802 48.8737 16.0848C48.7049 15.8701 48.536 15.6634 48.3511 15.4646C48.2788 15.3851 48.1984 15.2977 48.118 15.2182C47.8607 14.9558 47.5873 14.7013 47.2979 14.4708C47.0728 14.2879 46.8477 14.1209 46.6145 13.9619C46.6145 13.9619 46.6145 13.9619 46.6065 13.9619C45.9151 13.4848 45.1674 13.1032 44.3714 12.7852C44.3554 12.7852 44.3473 12.7772 44.3312 12.7693C44.074 12.6659 43.8167 12.5784 43.5594 12.491C43.5112 12.4751 43.4549 12.4592 43.3986 12.4433C41.9113 11.9742 40.2712 11.7118 38.4863 11.5607C37.7628 11.5051 37.0151 11.4573 36.2513 11.4335C35.0694 11.3937 33.8394 11.3778 32.553 11.3778H19.4241V3.18039H36.3478C42.8278 3.18039 46.5743 3.54613 49.0506 5.55773C50.8836 7.03661 51.7761 9.35034 51.7761 12.6182C51.7761 15.0989 51.2696 17.023 50.2324 18.4462L50.2405 18.4383Z" fill="#B7D000"/>
</g>
<defs>
<clipPath id="clip0_63_1838">
<rect width="55" height="48" fill="white"/>
</clipPath>
</defs>
</svg>
