<svg width="445" height="224" viewBox="0 0 445 224" fill="none" xmlns="http://www.w3.org/2000/svg">
<g clip-path="url(#clip0_340_1043)">
<path d="M402.338 128.286L410.175 136.165L409.661 138.256L394.258 134.466L394.993 131.493L403.57 133.609L398.433 128.421L398.938 126.354L405.897 124.144L397.319 122.034L398.051 119.066L413.446 122.855L412.937 124.946L402.338 128.286Z" fill="white"/>
<path d="M403.639 151.147C401.216 155.393 396.377 156.519 392.462 154.286C388.55 152.054 387.055 147.316 389.476 143.067C391.903 138.818 396.74 137.692 400.653 139.925C404.568 142.158 406.065 146.896 403.639 151.147ZM391.841 144.41C390.359 147.005 391.381 150.147 393.976 151.63C396.576 153.109 399.798 152.397 401.28 149.802C402.762 147.203 401.737 144.061 399.138 142.585C396.543 141.104 393.319 141.815 391.841 144.41Z" fill="white"/>
<path d="M395.828 162.655L394.319 164.188L380.768 163.224L388.116 170.476L385.975 172.654L374.688 161.525L376.198 159.992L389.747 160.956L382.398 153.704L384.548 151.529L395.828 162.655Z" fill="white"/>
<path d="M380.534 176.919L378.685 178.013L365.814 173.611L371.072 182.51L368.435 184.063L360.371 170.408L362.225 169.314L375.088 173.715L369.833 164.819L372.468 163.263L380.534 176.919Z" fill="white"/>
<path d="M358.786 171.211L356.571 188.316L354.501 188.899L343.641 175.502L346.716 174.628L349.11 177.599L355.234 175.864L355.715 172.081L358.786 171.211ZM354.863 178.795L350.983 179.889L354.203 183.853L354.863 178.795Z" fill="white"/>
<path d="M341.548 175.61L338.505 175.907L340.048 191.688L343.09 191.39L341.548 175.61Z" fill="white"/>
<path d="M331.458 189.034L331.601 185.753L326.733 185.545L326.851 182.828L331.714 183.037L331.904 178.627L325.232 178.336L325.348 175.625L335.08 176.045L334.393 191.881L324.89 191.474L325.009 188.755L331.458 189.034Z" fill="white"/>
<path d="M311.259 179.362L313.68 172.77L316.55 173.825L311.081 188.705L305.654 186.715C304.127 186.152 303.304 185.364 302.813 184.407C302.286 183.345 302.172 182.076 302.609 180.889C303.049 179.694 303.956 178.801 305.047 178.328C305.593 178.096 306.193 177.979 306.856 178.005L303.798 169.135L307.344 170.439L310.217 178.975L311.259 179.362ZM307.939 181.035C307.107 180.73 306.686 180.769 306.328 180.951C305.972 181.133 305.644 181.494 305.489 181.922C305.328 182.368 305.338 182.854 305.493 183.226C305.644 183.598 305.935 183.922 306.764 184.223L309.143 185.1L310.321 181.913L307.939 181.035Z" fill="white"/>
<path d="M289.015 178.556C284.932 175.864 284.123 170.958 286.608 167.198C289.094 163.434 293.919 162.25 298.003 164.946C302.083 167.638 302.892 172.547 300.41 176.307C297.923 180.067 293.1 181.255 289.015 178.556ZM296.503 167.214C294.009 165.567 290.809 166.385 289.16 168.881C287.514 171.38 288.014 174.641 290.514 176.289C293.013 177.939 296.209 177.121 297.857 174.622C299.506 172.126 299.002 168.861 296.503 167.214Z" fill="white"/>
<path d="M281.382 160.661L286.479 155.6L288.633 157.768L283.537 162.83L281.207 172.803L278.751 170.324L280.25 163.923L273.852 165.392L271.396 162.914L281.382 160.661Z" fill="white"/>
<path d="M284.295 153.879L267.354 157.134L266.151 155.355L275.474 140.838L277.262 143.485L275.192 146.689L278.761 151.963L282.505 151.232L284.295 153.879ZM275.861 152.529L273.602 149.186L270.852 153.487L275.861 152.529Z" fill="white"/>
<path d="M260.238 144.921L259.108 142.081L271.315 137.23L268.845 131.017L271.372 130.017L274.971 139.064L260.238 144.921Z" fill="white"/>
<path d="M257.332 127.502L260.543 126.803L259.504 122.044L262.161 121.467L263.196 126.225L267.513 125.283L266.089 118.756L268.742 118.173L270.819 127.687L255.326 131.068L253.304 121.771L255.957 121.196L257.332 127.502Z" fill="white"/>
<path d="M378.984 98.1071C375.945 98.6101 374.007 101.318 374.503 104.333C374.842 106.369 376.068 107.684 377.402 108.402L375.894 110.785C373.897 109.695 372.282 107.574 371.813 104.711C371.004 99.8391 373.995 95.8331 378.482 95.0871C382.977 94.3461 387.089 97.1291 387.893 102.003C388.277 104.327 387.738 106.461 386.604 108.095L384.23 106.491C385.01 105.398 385.465 103.966 385.21 102.426C384.715 99.4531 381.954 97.6141 378.984 98.1071Z" fill="white"/>
<path d="M373.254 112.159L387.259 122.225L386.796 124.325L369.846 127.525L370.539 124.412L374.288 123.707L375.664 117.5L372.564 115.28L373.254 112.159ZM378.072 119.212L377.198 123.144L382.211 122.193L378.072 119.212Z" fill="white"/>
<path d="M381.312 139.101L380 140.806L366.425 141.514L374.615 147.814L372.749 150.235L360.178 140.569L361.491 138.864L375.066 138.158L366.876 131.861L368.74 129.435L381.312 139.101Z" fill="white"/>
<path d="M358.626 142.119L359.983 159.315L358.08 160.312L344.693 149.439L347.521 147.954L350.475 150.364L356.11 147.407L355.801 143.601L358.626 142.119ZM356.353 150.352L352.78 152.226L356.744 155.439L356.353 150.352Z" fill="white"/>
<path d="M338.545 165.878C336.036 166.049 334.351 165.622 332.999 164.762C330.956 163.448 329.597 161.179 329.419 158.558C329.241 155.936 330.273 153.504 332.122 151.927C333.345 150.888 334.956 150.235 337.464 150.066L342.435 149.723L343.516 165.54L338.545 165.878ZM333.855 161.703C334.813 162.751 336.146 163.321 338.02 163.192L340.282 163.037L339.571 152.643L337.312 152.798C335.437 152.927 334.192 153.672 333.386 154.837C332.726 155.792 332.38 157.041 332.467 158.352C332.559 159.658 333.073 160.849 333.855 161.703Z" fill="white"/>
<path d="M322.976 165.289L319.99 164.628L323.433 149.154L326.417 149.812L322.976 165.289Z" fill="white"/>
<path d="M310.046 157.846L311.599 154.95L307.312 152.649L308.593 150.254L312.884 152.559L314.971 148.669L309.085 145.51L310.37 143.113L318.951 147.718L311.46 161.687L303.075 157.189L304.357 154.795L310.046 157.846Z" fill="white"/>
<path d="M294.989 150.96L293.646 149.277L296.203 135.929L288.132 142.378L286.223 139.99L298.609 130.095L299.953 131.774L297.396 145.123L305.467 138.673L307.374 141.064L294.989 150.96Z" fill="white"/>
<path d="M281.382 129.816L280.925 127.713L289.16 116.901L279.068 119.079L278.421 116.09L293.921 112.747L294.374 114.85L286.138 125.662L296.235 123.483L296.878 126.477L281.382 129.816Z" fill="white"/>
<path d="M282.042 103.505L285.255 104.178L286.251 99.4129L288.912 99.9699L287.912 104.734L292.239 105.642L293.61 99.1049L296.268 99.6619L294.268 109.192L278.753 105.941L280.705 96.6299L283.361 97.1899L282.042 103.505Z" fill="white"/>
<path d="M262.946 99.517L269.82 100.952L269.192 103.947L253.672 100.7L254.853 95.047C255.186 93.45 255.84 92.526 256.717 91.895C257.688 91.218 258.93 90.924 260.172 91.183C261.415 91.442 262.435 92.21 263.056 93.222C263.367 93.725 263.571 94.301 263.642 94.965L271.971 90.644L271.198 94.346L263.167 98.43L262.946 99.517ZM260.801 96.475C260.986 95.609 260.886 95.195 260.653 94.872C260.423 94.543 260.016 94.275 259.568 94.182C259.107 94.082 258.621 94.171 258.277 94.373C257.937 94.579 257.66 94.914 257.474 95.779L256.954 98.265L260.28 98.96L260.801 96.475Z" fill="white"/>
<path d="M260.462 77.3861C262.543 72.9591 267.279 71.4541 271.36 73.3701C275.437 75.2891 277.304 79.8931 275.223 84.3221C273.142 88.7491 268.406 90.2541 264.327 88.3341C260.248 86.4191 258.384 81.8121 260.462 77.3861ZM272.761 83.1651C274.033 80.4621 272.765 77.4081 270.056 76.1371C267.352 74.8681 264.197 75.8401 262.925 78.5431C261.65 81.2471 262.925 84.2981 265.626 85.5691C268.334 86.8391 271.489 85.8721 272.761 83.1651Z" fill="white"/>
<path d="M276.944 67.318L282.683 71.641L280.844 74.082L275.104 69.764L264.9 68.89L267.002 66.104L273.551 66.667L271.185 60.549L273.282 57.76L276.944 67.318Z" fill="white"/>
<path d="M284.165 69.361L278.502 53.074L280.091 51.626L295.795 58.756L293.436 60.907L289.964 59.323L285.265 63.61L286.524 67.211L284.165 69.361ZM284.285 60.824L287.264 58.108L282.614 56.003L284.285 60.824Z" fill="white"/>
<path d="M289.433 44.157L292.083 42.624L298.668 53.99L304.45 50.639L305.816 52.992L297.384 57.876L289.433 44.157Z" fill="white"/>
<path d="M312.175 42.1739C312.897 45.1709 315.738 46.9069 318.715 46.1899C320.715 45.7079 321.935 44.3879 322.556 43.0029L325.045 44.3389C324.103 46.4069 322.101 48.1689 319.284 48.8479C314.482 50.0049 310.269 47.3179 309.208 42.8909C308.138 38.4669 310.619 34.1619 315.421 33.0069C317.705 32.4569 319.874 32.8399 321.585 33.8519L320.157 36.3369C319.011 35.6379 317.549 35.2909 316.036 35.6539C313.104 36.3579 311.47 39.2489 312.175 42.1739Z" fill="white"/>
<path d="M325.578 47.1909L332.118 31.2329L334.27 31.2009L341.315 46.9429L338.121 46.9919L336.573 43.5069L330.212 43.6059L328.769 47.1399L325.578 47.1909ZM331.322 40.8729L335.35 40.8099L333.263 36.1549L331.322 40.8729Z" fill="white"/>
<path d="M346.502 31.947L348.589 32.474L354.624 44.645L357.154 34.634L360.112 35.38L356.239 50.752L354.151 50.225L348.116 38.051L345.589 48.063L342.622 47.316L346.502 31.947Z" fill="white"/>
<path d="M357.851 51.4549L371.46 40.8669L373.345 41.9079L371.623 59.0699L368.827 57.5219L369.219 53.7279L363.65 50.6499L360.643 52.9999L357.851 51.4549ZM365.977 48.8289L369.5 50.7779L370.005 45.6999L365.977 48.8289Z" fill="white"/>
<path d="M387.34 51.7941C389.187 53.5021 390.031 55.0251 390.33 56.6011C390.776 58.9871 390.058 61.5321 388.271 63.4581C386.485 65.3861 384.006 66.2971 381.595 66.0391C379.996 65.8611 378.417 65.1381 376.569 63.4281L372.914 60.0421L383.684 48.4121L387.34 51.7941ZM387.521 58.0711C387.622 56.6581 387.126 55.2991 385.745 54.0211L384.082 52.4841L377.009 60.1241L378.668 61.6661C380.05 62.9411 381.441 63.3351 382.842 63.1241C383.988 62.9511 385.137 62.3461 386.03 61.3811C386.92 60.4191 387.438 59.2301 387.521 58.0711Z" fill="white"/>
<path d="M383.72 70.9206L385.597 73.3359L398.121 63.603L396.244 61.1876L383.72 70.9206Z" fill="white"/>
<path d="M386.984 74.724L404.182 73.355L405.184 75.264L394.312 88.661L392.828 85.834L395.238 82.875L392.274 77.242L388.467 77.551L386.984 74.724ZM395.22 76.997L397.097 80.567L400.31 76.6L395.22 76.997Z" fill="white"/>
<path d="M410.312 86.803L410.787 88.899L402.682 99.801L412.745 97.508L413.428 100.49L397.97 104.01L397.493 101.913L405.603 91.007L395.533 93.3L394.856 90.322L410.312 86.803Z" fill="white"/>
<path d="M310.385 72.567L310.523 61.46L312.372 60.363L320.446 74.006L317.812 75.562L313.316 67.961L313.213 75.258L311.383 76.345L304.936 72.922L309.435 80.523L306.803 82.081L298.729 68.436L300.581 67.341L310.385 72.567Z" fill="white"/>
<path d="M326.222 72.6324L329.246 72.1846L326.924 56.5048L323.9 56.9526L326.222 72.6324Z" fill="white"/>
<path d="M338.606 56.5481L340.703 57.0161L347.088 69.0141L349.324 58.9311L352.314 59.5961L348.871 75.0701L346.771 74.6041L340.392 62.6051L338.146 72.6881L335.163 72.0221L338.606 56.5481Z" fill="white"/>
<path d="M369.697 69.2771L368.154 71.5141L364.704 69.1341L357.242 79.9471L354.725 78.2111L362.187 67.3981L358.737 65.0171L360.284 62.7781L369.697 69.2771Z" fill="white"/>
<path d="M137.971 166.93C137.971 158.325 130.975 151.326 122.377 151.326C113.773 151.326 106.77 158.326 106.77 166.93C106.77 175.534 113.773 182.531 122.377 182.531C130.976 182.53 137.971 175.534 137.971 166.93Z" fill="white"/>
<path d="M159.254 160.616C150.656 160.616 143.656 167.612 143.656 176.22C143.656 184.822 150.656 191.817 159.254 191.817C167.854 191.817 174.854 184.821 174.854 176.22C174.854 167.612 167.854 160.616 159.254 160.616Z" fill="white"/>
<path d="M129.872 147.847C135.923 147.847 140.848 142.919 140.848 136.861C140.848 130.807 135.923 125.882 129.872 125.882C123.818 125.882 118.889 130.807 118.889 136.861C118.888 142.919 123.817 147.847 129.872 147.847Z" fill="white"/>
<path d="M104.451 159.852C104.451 153.597 99.3609 148.504 93.0989 148.504C86.8439 148.504 81.7529 153.597 81.7529 159.852C81.7529 166.11 86.8439 171.198 93.0989 171.198C99.3599 171.198 104.451 166.11 104.451 159.852Z" fill="white"/>
<path d="M179.488 148.086C186.975 148.086 193.062 141.996 193.062 134.511C193.062 127.026 186.975 120.936 179.488 120.936C172.007 120.936 165.917 127.026 165.913 134.511C165.913 141.996 172 148.086 179.488 148.086Z" fill="white"/>
<path d="M155.391 158.416C161.646 158.416 166.736 153.33 166.736 147.071C166.736 140.813 161.646 135.725 155.391 135.725C149.135 135.725 144.045 140.812 144.045 147.071C144.044 153.329 149.135 158.416 155.391 158.416Z" fill="white"/>
<path d="M155.206 106.493C155.206 100.758 150.539 96.092 144.803 96.092C139.068 96.092 134.403 100.758 134.403 106.493C134.403 112.225 139.068 116.889 144.803 116.889C150.539 116.889 155.206 112.226 155.206 106.493Z" fill="white"/>
<path d="M117.575 142.32C117.575 137.039 113.281 132.741 108.003 132.741C102.722 132.748 98.4209 137.042 98.4209 142.32C98.4209 147.601 102.721 151.899 108.003 151.899C113.28 151.898 117.575 147.601 117.575 142.32Z" fill="white"/>
<path d="M186.594 109.302C186.594 113.75 190.212 117.371 194.659 117.371C199.107 117.371 202.728 113.75 202.728 109.302C202.728 104.853 199.107 101.233 194.659 101.233C190.212 101.233 186.594 104.853 186.594 109.302Z" fill="white"/>
<path d="M140.44 90.7501C140.44 86.7751 137.204 83.5371 133.227 83.5371C129.257 83.5371 126.023 86.7751 126.023 90.7501C126.023 94.7181 129.257 97.9491 133.227 97.9491C137.204 97.9491 140.44 94.7181 140.44 90.7501Z" fill="white"/>
<path d="M137.78 178.715C134.939 178.715 132.629 181.028 132.629 183.87C132.629 186.715 134.94 189.031 137.78 189.031C140.625 189.031 142.931 186.715 142.931 183.87C142.931 181.028 140.625 178.715 137.78 178.715Z" fill="white"/>
<path d="M99.8074 171.55C95.6434 171.754 92.4185 175.307 92.6225 179.474C92.8235 183.507 96.1405 186.671 100.175 186.671C100.301 186.671 100.426 186.665 100.553 186.659C104.715 186.454 107.934 182.895 107.731 178.727C107.524 174.573 104.003 171.346 99.8074 171.55Z" fill="white"/>
<path d="M202.68 131.726C198.234 131.726 194.617 135.347 194.617 139.793C194.617 144.24 198.234 147.86 202.68 147.86C207.13 147.86 210.751 144.239 210.751 139.793C210.751 135.347 207.13 131.726 202.68 131.726Z" fill="white"/>
<path d="M147.401 124.354C147.401 129.634 151.698 133.932 156.975 133.932C162.257 133.932 166.555 129.635 166.555 124.354C166.555 119.076 162.257 114.781 156.975 114.781C151.698 114.782 147.401 119.076 147.401 124.354Z" fill="white"/>
<path d="M180.562 149.908C175.285 149.908 170.984 154.202 170.984 159.483C170.984 164.768 175.285 169.065 180.562 169.065C185.843 169.065 190.141 164.768 190.141 159.483C190.142 154.202 185.844 149.908 180.562 149.908Z" fill="white"/>
<path d="M165.622 109.798C165.622 115.079 169.919 119.374 175.2 119.374C180.478 119.374 184.772 115.08 184.772 109.798C184.772 104.516 180.478 100.218 175.2 100.218C169.919 100.219 165.622 104.516 165.622 109.798Z" fill="white"/>
<path d="M218.468 103.689C218.468 99.8549 215.346 96.7329 211.508 96.7329C207.673 96.7329 204.547 99.8549 204.547 103.689C204.547 107.522 207.673 110.645 211.508 110.645C215.346 110.645 218.468 107.522 218.468 103.689Z" fill="white"/>
<path d="M184.229 97.476C186.962 97.476 189.183 95.256 189.183 92.525C189.183 89.795 186.962 87.574 184.229 87.574C181.498 87.574 179.278 89.794 179.278 92.525C179.278 95.256 181.498 97.476 184.229 97.476Z" fill="white"/>
<path d="M196.396 123.471C196.396 126.784 199.091 129.487 202.409 129.493H202.412C205.728 129.493 208.424 126.794 208.424 123.471C208.424 120.158 205.729 117.461 202.412 117.461C199.092 117.461 196.396 120.157 196.396 123.471Z" fill="white"/>
<path d="M99.5734 132.725C103.091 132.725 105.945 129.868 105.945 126.35C105.945 122.832 103.091 119.975 99.5734 119.975C96.0554 119.975 93.1924 122.832 93.1924 126.347C93.1914 129.861 96.0554 132.725 99.5734 132.725Z" fill="white"/>
<path d="M152.63 83.377C149.112 83.377 146.249 86.239 146.249 89.758C146.249 93.28 149.113 96.146 152.63 96.146C156.154 96.146 159.018 93.28 159.018 89.758C159.018 86.239 156.154 83.377 152.63 83.377Z" fill="white"/>
<path d="M102.065 80.3999C98.2255 80.3999 95.1035 83.5189 95.1035 87.3519C95.1035 91.1869 98.2265 94.3049 102.065 94.3079C105.902 94.3079 109.023 91.1869 109.023 87.3519C109.023 83.5199 105.902 80.3999 102.065 80.3999Z" fill="white"/>
<path d="M217.15 130.412C214.421 130.412 212.2 132.632 212.2 135.363C212.2 138.088 214.421 140.314 217.148 140.314H217.15C219.882 140.314 222.102 138.094 222.102 135.366C222.103 132.635 219.883 130.412 217.15 130.412Z" fill="white"/>
<path d="M90.1458 124.302C88.5858 118.328 83.1888 114.154 77.0148 114.154C75.8498 114.154 74.6988 114.3 73.5878 114.591C70.0838 115.507 67.1418 117.734 65.3038 120.865C63.4688 123.991 62.9608 127.648 63.8768 131.146C65.4298 137.123 70.8318 141.297 77.0048 141.304C78.1598 141.304 79.3178 141.156 80.4348 140.865C87.6718 138.977 92.0298 131.547 90.1458 124.302Z" fill="white"/>
<path d="M50.3256 128.373C52.4086 127.83 54.1576 126.509 55.2476 124.648C56.3416 122.787 56.6426 120.613 56.0986 118.535C55.1756 114.979 51.9666 112.497 48.2966 112.497C47.6126 112.497 46.9306 112.586 46.2576 112.759C44.1706 113.304 42.4196 114.627 41.3326 116.484C40.2426 118.348 39.9416 120.523 40.4876 122.607C41.4136 126.157 44.6236 128.635 48.2936 128.635C48.9946 128.635 49.6776 128.545 50.3256 128.373Z" fill="white"/>
<path d="M74.6987 144.258C74.2907 144.258 73.8797 144.314 73.4787 144.421C71.0127 145.084 69.5307 147.608 70.1817 150.045C70.7157 152.035 72.5407 153.426 74.6187 153.426C75.0227 153.426 75.4337 153.368 75.8447 153.261C78.3097 152.598 79.7897 150.071 79.1377 147.634C78.6067 145.646 76.7787 144.258 74.6987 144.258Z" fill="white"/>
<path d="M70.9363 106.861C71.7803 110.114 74.7154 112.388 78.0784 112.388C78.7064 112.388 79.3333 112.305 79.9423 112.141C81.8553 111.648 83.4604 110.439 84.4544 108.736C85.4544 107.035 85.7283 105.048 85.2293 103.136C84.3753 99.8851 81.4373 97.6121 78.0843 97.6121C77.4513 97.6121 76.8224 97.6941 76.2174 97.8551C72.2824 98.8811 69.9103 102.921 70.9363 106.861Z" fill="white"/>
<path d="M62.923 144.093C64.221 141.886 64.58 139.303 63.93 136.828C62.835 132.611 59.027 129.667 54.672 129.667C53.847 129.667 53.038 129.774 52.252 129.978C49.773 130.625 47.696 132.198 46.405 134.405C45.11 136.606 44.758 139.185 45.402 141.663C46.499 145.88 50.311 148.824 54.663 148.824C55.485 148.824 56.297 148.718 57.08 148.513C59.555 147.873 61.629 146.3 62.923 144.093Z" fill="white"/>
<path d="M40.0739 112.449C40.6569 112.449 41.2489 112.373 41.8379 112.224C43.6339 111.753 45.1419 110.614 46.0809 109.009C47.0249 107.409 47.2849 105.534 46.8179 103.734C46.0189 100.669 43.2529 98.5281 40.0909 98.5281C39.5019 98.5281 38.9099 98.6051 38.3279 98.7541C36.5249 99.2241 35.0169 100.364 34.0819 101.967C33.1399 103.572 32.8809 105.448 33.3509 107.24C34.1489 110.309 36.9119 112.449 40.0739 112.449Z" fill="white"/>
<path d="M36.1615 129.745C35.7465 129.745 35.3275 129.797 34.9125 129.907C33.6345 130.24 32.5595 131.053 31.8905 132.195C31.2175 133.337 31.0365 134.67 31.3665 135.949C31.9335 138.13 33.9045 139.654 36.1595 139.654C36.5705 139.654 36.9915 139.602 37.4085 139.496C40.0465 138.804 41.6355 136.092 40.9515 133.454C40.3845 131.272 38.4135 129.745 36.1615 129.745Z" fill="white"/>
<path d="M147.122 162.7C147.728 161.667 147.895 160.464 147.598 159.308C147.075 157.334 145.292 155.955 143.266 155.955C142.89 155.955 142.508 156.01 142.132 156.104C139.75 156.728 138.311 159.178 138.932 161.566C139.448 163.534 141.223 164.912 143.259 164.912C143.641 164.912 144.023 164.863 144.385 164.769C145.543 164.47 146.517 163.735 147.122 162.7Z" fill="white"/>
<path d="M129.762 117.329C129.115 118.429 128.933 119.727 129.258 120.97C129.804 123.074 131.71 124.549 133.891 124.549C134.295 124.549 134.7 124.501 135.102 124.397C136.34 124.074 137.382 123.284 138.023 122.184C138.674 121.084 138.851 119.793 138.531 118.55C137.981 116.44 136.075 114.965 133.897 114.965C133.486 114.965 133.078 115.014 132.685 115.117C131.444 115.436 130.403 116.226 129.762 117.329Z" fill="white"/>
<path d="M61.6539 116.523C62.2879 116.523 62.9199 116.442 63.5279 116.28C65.4499 115.779 67.0649 114.562 68.0739 112.84C69.0799 111.124 69.3589 109.119 68.8569 107.197C67.9999 103.917 65.0389 101.628 61.6569 101.628C61.0319 101.628 60.3979 101.711 59.7799 101.869C57.8549 102.369 56.2389 103.592 55.2339 105.309C54.2249 107.022 53.9459 109.023 54.4509 110.947C55.3029 114.232 58.2669 116.523 61.6539 116.523Z" fill="white"/>
<path d="M79.9116 161.321C79.1256 158.286 76.3846 156.163 73.2516 156.163C72.6636 156.163 72.0776 156.241 71.5076 156.39C69.7316 156.849 68.2386 157.981 67.3036 159.571C66.3716 161.159 66.1156 163.017 66.5786 164.794C67.3686 167.829 70.1056 169.948 73.2416 169.948C73.8246 169.948 74.4166 169.87 74.9866 169.722C78.6556 168.764 80.8656 164.998 79.9116 161.321Z" fill="white"/>
<path d="M69.919 97.6929H69.922C70.339 97.6929 70.76 97.6399 71.168 97.5309C72.45 97.1959 73.523 96.3839 74.19 95.2449C74.863 94.1009 75.05 92.7689 74.71 91.4899C74.145 89.3099 72.177 87.7839 69.924 87.7839C69.507 87.7839 69.08 87.8379 68.675 87.9449C67.393 88.2769 66.319 89.0869 65.653 90.2309C64.983 91.3669 64.796 92.6999 65.132 93.9809C65.703 96.1659 67.67 97.6929 69.919 97.6929Z" fill="white"/>
<path d="M66.9327 152.959C66.3377 150.791 64.3107 149.283 62.0037 149.283C61.5187 149.283 61.0207 149.347 60.5387 149.487C57.7557 150.277 56.0927 153.108 56.8367 155.803C57.4287 157.962 59.4577 159.469 61.7687 159.475C62.2537 159.475 62.7457 159.404 63.2347 159.272C66.0097 158.487 67.6697 155.652 66.9327 152.959Z" fill="white"/>
<path d="M128.806 51.886C128.806 54.494 130.927 56.614 133.529 56.614C136.13 56.614 138.249 54.494 138.249 51.886C138.249 49.285 136.13 47.167 133.529 47.167C130.927 47.167 128.806 49.285 128.806 51.886Z" fill="white"/>
<path d="M95.3056 73C93.3986 73 91.8486 74.547 91.8486 76.45C91.8486 78.357 93.3986 79.909 95.3056 79.909C97.2036 79.909 98.7536 78.357 98.7536 76.45C98.7536 74.546 97.2036 73 95.3056 73Z" fill="white"/>
<path d="M86.7783 113.633C86.7783 115.908 88.6293 117.762 90.9083 117.762C93.1863 117.762 95.0443 115.908 95.0443 113.633C95.0443 111.357 93.1863 109.501 90.9083 109.501C88.6293 109.501 86.7783 111.357 86.7783 113.633Z" fill="white"/>
<path d="M87.5361 142.841C87.5361 144.818 89.1441 146.429 91.1271 146.429C93.1051 146.429 94.7191 144.818 94.7191 142.841C94.7191 140.857 93.1051 139.249 91.1271 139.249C89.1441 139.249 87.5361 140.857 87.5361 142.841Z" fill="white"/>
<path d="M81.8924 168.942C80.8574 168.991 79.9004 169.443 79.2014 170.214C78.4984 170.984 78.1424 171.981 78.1944 173.013C78.2954 175.093 80.0004 176.718 82.0774 176.718C82.1454 176.718 82.2064 176.715 82.2744 176.712C83.3104 176.661 84.2684 176.207 84.9634 175.441C85.6624 174.667 86.0184 173.674 85.9694 172.629C85.8634 170.495 84.0504 168.835 81.8924 168.942Z" fill="white"/>
<path d="M145.174 137.033C146.989 137.027 148.462 135.554 148.462 133.745C148.462 131.933 146.989 130.454 145.174 130.454C143.362 130.454 141.893 131.933 141.893 133.745C141.893 135.557 143.362 137.033 145.174 137.033Z" fill="white"/>
<path d="M193.219 146.132C190.944 146.132 189.097 147.98 189.097 150.248C189.097 152.523 190.944 154.371 193.219 154.371C195.488 154.371 197.338 152.517 197.338 150.248C197.338 147.979 195.487 146.132 193.219 146.132Z" fill="white"/>
<path d="M130.282 108.3C130.272 104.184 128.664 100.317 125.751 97.415C122.849 94.515 118.986 92.918 114.876 92.918C110.756 92.918 106.882 94.525 103.974 97.445C101.065 100.358 99.4697 104.228 99.4717 108.342C99.4807 112.458 101.087 116.321 103.999 119.225C106.906 122.127 110.769 123.725 114.873 123.725H114.877C119.005 123.725 122.876 122.114 125.781 119.195C128.69 116.283 130.289 112.413 130.282 108.3Z" fill="white"/>
<path d="M117.516 66.3049H117.519C119.959 66.3049 122.257 65.3529 123.978 63.6229C125.7 61.8999 126.645 59.6069 126.641 57.1659C126.641 54.7329 125.694 52.4429 123.962 50.7169C122.244 48.9999 119.955 48.0569 117.519 48.0569C115.079 48.0569 112.782 49.0089 111.061 50.7369C109.339 52.4619 108.395 54.7549 108.397 57.1949C108.401 59.6349 109.352 61.9249 111.077 63.6409C112.802 65.3589 115.089 66.3049 117.516 66.3049Z" fill="white"/>
<path d="M153.403 81.6169C155.847 81.6169 158.141 80.6649 159.863 78.9399C163.415 75.3719 163.409 69.5829 159.846 66.0299C158.115 64.3129 155.83 63.3669 153.403 63.3669C150.966 63.3669 148.67 64.3219 146.938 66.0489C143.392 69.6189 143.401 75.4079 146.961 78.9539C148.683 80.6719 150.974 81.6169 153.403 81.6169Z" fill="white"/>
<path d="M89.5449 179.624C88.1669 178.375 86.3609 177.731 84.4939 177.822C82.6169 177.909 80.8919 178.731 79.6369 180.122C78.3739 181.514 77.7379 183.307 77.8349 185.18C77.9279 187.054 78.7469 188.779 80.1349 190.03C81.4329 191.206 83.0999 191.85 84.8309 191.85C84.9469 191.85 85.0669 191.843 85.1829 191.836C87.0599 191.745 88.7889 190.924 90.0459 189.533C91.3029 188.141 91.9429 186.342 91.8529 184.469C91.7519 182.595 90.9339 180.873 89.5449 179.624Z" fill="white"/>
<path d="M119.291 67.552C116.514 67.552 113.908 68.633 111.954 70.591C110.003 72.557 108.926 75.16 108.93 77.924C108.933 80.687 110.014 83.289 111.972 85.244C113.933 87.193 116.528 88.269 119.288 88.269H119.292C122.065 88.269 124.669 87.186 126.627 85.224C128.582 83.266 129.652 80.665 129.652 77.895C129.646 75.132 128.562 72.53 126.605 70.575C124.655 68.626 122.058 67.552 119.291 67.552Z" fill="white"/>
<path d="M126.555 46.913C128.659 46.913 130.632 46.091 132.117 44.604C135.175 41.534 135.172 36.551 132.108 33.488C130.622 32.011 128.651 31.196 126.555 31.196C124.449 31.196 122.474 32.014 120.989 33.506C119.507 34.993 118.692 36.968 118.696 39.066C118.698 41.167 119.521 43.139 121.006 44.62C122.487 46.098 124.455 46.913 126.555 46.913Z" fill="white"/>
<path d="M89.7487 64.2561C91.2407 64.2561 92.6427 63.6731 93.6967 62.6151C95.8667 60.4451 95.8617 56.9091 93.6897 54.7351C92.6387 53.6891 91.2397 53.1101 89.7487 53.1101C88.2637 53.1101 86.8647 53.6911 85.8107 54.7441C83.6397 56.9221 83.6457 60.4611 85.8177 62.6311C86.8687 63.6801 88.2667 64.2561 89.7487 64.2561Z" fill="white"/>
<path d="M102.825 73.1991C104.433 73.1991 105.948 72.5701 107.09 71.4301C109.43 69.0881 109.424 65.2691 107.08 62.9261C105.938 61.7971 104.43 61.1741 102.832 61.1741C101.226 61.1741 99.7124 61.8001 98.5704 62.9411C96.2344 65.2901 96.2404 69.1071 98.5834 71.4461C99.7164 72.5761 101.221 73.1991 102.825 73.1991Z" fill="white"/>
<path d="M130.195 60.984C127.205 63.987 127.208 68.863 130.208 71.854C131.658 73.299 133.586 74.097 135.635 74.097C137.69 74.097 139.621 73.293 141.077 71.838C144.065 68.835 144.057 63.96 141.065 60.972C139.608 59.524 137.68 58.729 135.635 58.729C133.577 58.729 131.645 59.53 130.195 60.984Z" fill="white"/>
<path d="M163.247 64.7569C164.745 64.7569 166.146 64.1779 167.195 63.1199C169.363 60.9509 169.356 57.4189 167.189 55.2439C166.136 54.1939 164.738 53.6179 163.25 53.6179C161.752 53.6179 160.354 54.2009 159.306 55.2539C157.138 57.4219 157.141 60.9569 159.312 63.1329C160.36 64.1819 161.759 64.7569 163.247 64.7569Z" fill="white"/>
<path d="M140.347 76.939C138.531 76.939 137.059 78.415 137.059 80.23C137.059 82.039 138.531 83.514 140.347 83.514C142.159 83.514 143.628 82.038 143.628 80.23C143.628 78.415 142.158 76.939 140.347 76.939Z" fill="white"/>
</g>
<defs>
<clipPath id="clip0_340_1043">
<rect width="444.651" height="223.057" fill="white"/>
</clipPath>
</defs>
</svg>
